<svg xmlns="http://www.w3.org/2000/svg" viewBox="0 0 576 512" id="root">

    <symbol id="youtube" viewBox="0 0 576 512">
        <path d="M549.655 124.083c-6.281-23.65-24.787-42.276-48.284-48.597C458.781 64 288 64 288 64S117.22 64 74.629
        75.486c-23.497 6.322-42.003 24.947-48.284 48.597-11.412 42.867-11.412 132.305-11.412 132.305s0 89.438 11.412
        132.305c6.281 23.65 24.787 41.5 48.284 47.821C117.22 448 288 448 288 448s170.78 0 213.371-11.486c23.497-6.321
        42.003-24.171 48.284-47.821 11.412-42.867 11.412-132.305 11.412-132.305s0-89.438-11.412-132.305zm-317.51
        213.508V175.185l142.739 81.205-142.739 81.201z" fill="currentColor" />
    </symbol>

    <symbol id="facebook" viewBox="0 0 576 512">
        <path
            d="M279.14 288l14.22-92.66h-88.91v-60.13c0-25.35 12.42-50.06 52.24-50.06h40.42V6.26S260.43 0 225.36 0c-73.22 0-121.08 44.38-121.08 124.72v70.62H22.89V288h81.39v224h100.17V288z"
            fill="currentColor" />
    </symbol>

    <symbol id="insta" viewBox="0 0 576 512">
        <path
            d="M224.1 141c-63.6 0-114.9 51.3-114.9 114.9s51.3 114.9 114.9 114.9S339 319.5 339 255.9 287.7 141 224.1 141zm0 189.6c-41.1 0-74.7-33.5-74.7-74.7s33.5-74.7 74.7-74.7 74.7 33.5 74.7 74.7-33.6 74.7-74.7 74.7zm146.4-194.3c0 14.9-12 26.8-26.8 26.8-14.9 0-26.8-12-26.8-26.8s12-26.8 26.8-26.8 26.8 12 26.8 26.8zm76.1 27.2c-1.7-35.9-9.9-67.7-36.2-93.9-26.2-26.2-58-34.4-93.9-36.2-37-2.1-147.9-2.1-184.9 0-35.8 1.7-67.6 9.9-93.9 36.1s-34.4 58-36.2 93.9c-2.1 37-2.1 147.9 0 184.9 1.7 35.9 9.9 67.7 36.2 93.9s58 34.4 93.9 36.2c37 2.1 147.9 2.1 184.9 0 35.9-1.7 67.7-9.9 93.9-36.2 26.2-26.2 34.4-58 36.2-93.9 2.1-37 2.1-147.8 0-184.8zM398.8 388c-7.8 19.6-22.9 34.7-42.6 42.6-29.5 11.7-99.5 9-132.1 9s-102.7 2.6-132.1-9c-19.6-7.8-34.7-22.9-42.6-42.6-11.7-29.5-9-99.5-9-132.1s-2.6-102.7 9-132.1c7.8-19.6 22.9-34.7 42.6-42.6 29.5-11.7 99.5-9 132.1-9s102.7-2.6 132.1 9c19.6 7.8 34.7 22.9 42.6 42.6 11.7 29.5 9 99.5 9 132.1s2.7 102.7-9 132.1z"
            fill="currentColor" />
    </symbol>

    <symbol id="whatsapp" viewBox="0 0 576 512">
        <path
            d="M380.9 97.1C339 55.1 283.2 32 223.9 32c-122.4 0-222 99.6-222 222 0 39.1 10.2 77.3 29.6 111L0 480l117.7-30.9c32.4 17.7 68.9 27 106.1 27h.1c122.3 0 224.1-99.6 224.1-222 0-59.3-25.2-115-67.1-157zm-157 341.6c-33.2 0-65.7-8.9-94-25.7l-6.7-4-69.8 18.3L72 359.2l-4.4-7c-18.5-29.4-28.2-63.3-28.2-98.2 0-101.7 82.8-184.5 184.6-184.5 49.3 0 95.6 19.2 130.4 54.1 34.8 34.9 56.2 81.2 56.1 130.5 0 101.8-84.9 184.6-186.6 184.6zm101.2-138.2c-5.5-2.8-32.8-16.2-37.9-18-5.1-1.9-8.8-2.8-12.5 2.8-3.7 5.6-14.3 18-17.6 21.8-3.2 3.7-6.5 4.2-12 1.4-32.6-16.3-54-29.1-75.5-66-5.7-9.8 5.7-9.1 16.3-30.3 1.8-3.7.9-6.9-.5-9.7-1.4-2.8-12.5-30.1-17.1-41.2-4.5-10.8-9.1-9.3-12.5-9.5-3.2-.2-6.9-.2-10.6-.2-3.7 0-9.7 1.4-14.8 6.9-5.1 5.6-19.4 19-19.4 46.3 0 27.3 19.9 53.7 22.6 57.4 2.8 3.7 39.1 59.7 94.8 83.8 35.2 15.2 49 16.5 66.6 13.9 10.7-1.6 32.8-13.4 37.4-26.4 4.6-13 4.6-24.1 3.2-26.4-1.3-2.5-5-3.9-10.5-6.6z"
            fill="currentColor" />
    </symbol>


    <symbol id="phone" viewBox="0 0 576 512">
        <path
            d="M164.9 24.6c-7.7-18.6-28-28.5-47.4-23.2l-88 24C12.1 30.2 0 46 0 64C0 311.4 200.6 512 448 512c18 0 33.8-12.1 38.6-29.5l24-88c5.3-19.4-4.6-39.7-23.2-47.4l-96-40c-16.3-6.8-35.2-2.1-46.3 11.6L304.7 368C234.3 334.7 177.3 277.7 144 207.3L193.3 167c13.7-11.2 18.4-30 11.6-46.3l-40-96z"
            fill="currentColor" />
    </symbol>


    <symbol id="email" viewBox="0 0 576 512">
        <path
            d="M64 112c-8.8 0-16 7.2-16 16v22.1L220.5 291.7c20.7 17 50.4 17 71.1 0L464 150.1V128c0-8.8-7.2-16-16-16H64zM48 212.2V384c0 8.8 7.2 16 16 16H448c8.8 0 16-7.2 16-16V212.2L322 328.8c-38.4 31.5-93.7 31.5-132 0L48 212.2zM0 128C0 92.7 28.7 64 64 64H448c35.3 0 64 28.7 64 64V384c0 35.3-28.7 64-64 64H64c-35.3 0-64-28.7-64-64V128z"
            fill="currentColor" />
    </symbol>

    <symbol id="angle_down" viewBox="0 0 576 512">
        <path
            d="M169.4 342.6c12.5 12.5 32.8 12.5 45.3 0l160-160c12.5-12.5 12.5-32.8 0-45.3s-32.8-12.5-45.3 0L192 274.7 54.6 137.4c-12.5-12.5-32.8-12.5-45.3 0s-12.5 32.8 0 45.3l160 160z" />
    </symbol>
    <symbol id="angle_right" viewBox="0 0 576 512">
        <path
            d="M246.6 233.4c12.5 12.5 12.5 32.8 0 45.3l-160 160c-12.5 12.5-32.8 12.5-45.3 0s-12.5-32.8 0-45.3L178.7 256 41.4 118.6c-12.5-12.5-12.5-32.8 0-45.3s32.8-12.5 45.3 0l160 160z" />
    </symbol>

    <symbol id="question" viewBox="0 0 576 512">
        <path
            d="M246.6 233.4c12.5 12.5 12.5 32.8 0 45.3l-160 160c-12.5 12.5-32.8 12.5-45.3 0s-12.5-32.8 0-45.3L178.7 256 41.4 118.6c-12.5-12.5-12.5-32.8 0-45.3s32.8-12.5 45.3 0l160 160z" />
    </symbol>

    <symbol id="power" viewBox="0 0 576 512">
        <path
            d="M288 32c0-17.7-14.3-32-32-32s-32 14.3-32 32V256c0 17.7 14.3 32 32 32s32-14.3 32-32V32zM143.5 120.6c13.6-11.3 15.4-31.5 4.1-45.1s-31.5-15.4-45.1-4.1C49.7 115.4 16 181.8 16 256c0 132.5 107.5 240 240 240s240-107.5 240-240c0-74.2-33.8-140.6-86.6-184.6c-13.6-11.3-33.8-9.4-45.1 4.1s-9.4 33.8 4.1 45.1c38.9 32.3 63.5 81 63.5 135.4c0 97.2-78.8 176-176 176s-176-78.8-176-176c0-54.4 24.7-103.1 63.5-135.4z" />
    </symbol>
    <symbol id="angle_up" viewBox="0 0 576 512">
        <path
            d="M169.4 137.4c12.5-12.5 32.8-12.5 45.3 0l160 160c12.5 12.5 12.5 32.8 0 45.3s-32.8 12.5-45.3 0L192 205.3 54.6 342.6c-12.5 12.5-32.8 12.5-45.3 0s-12.5-32.8 0-45.3l160-160z" />
    </symbol>

    <symbol id="profile" viewBox="0 0 576 512">
        <path
            d="M224 256A128 128 0 1 0 224 0a128 128 0 1 0 0 256zm-45.7 48C79.8 304 0 383.8 0 482.3C0 498.7 13.3 512 29.7 512H418.3c16.4 0 29.7-13.3 29.7-29.7C448 383.8 368.2 304 269.7 304H178.3z" />
    </symbol>

    <symbol id="pen" viewBox="0 0 576 512">
        <path
            d="M362.7 19.3L314.3 67.7 444.3 197.7l48.4-48.4c25-25 25-65.5 0-90.5L453.3 19.3c-25-25-65.5-25-90.5 0zm-71 71L58.6 323.5c-10.4 10.4-18 23.3-22.2 37.4L1 481.2C-1.5 489.7 .8 498.8 7 505s15.3 8.5 23.7 6.1l120.3-35.4c14.1-4.2 27-11.8 37.4-22.2L421.7 220.3 291.7 90.3z" />
    </symbol>




    <symbol id="certificate" viewBox="0 0 477 477">
        <g>
            <g>
                <path
                    d="m404.35,297.5c27.1-22.3 43.6-55.5 43.6-91.3 0-30.9-11.3-58.9-30.2-79.7v-116.1c0-6.3-4.2-10.4-10.4-10.4h-363.6c-6.3,0-10.4,4.2-10.4,10.4v468.8c0,6.3 4.2,10.4 10.4,10.4h363.5c5.2,0 10.4-4.2 10.4-10.4v-58.6l38.6-13.3-51.9-109.8zm23.8-91.3c-0.1,38.6-21.9,73-56.3,88.6-12.5,5.2-26,8.3-40.6,8.3-53.1,0-96.9-43.8-96.9-96.9s43.8-96.9 96.9-96.9 95.8,42.7 96.9,96.9zm-136.3,110.1l-21.1,93-40.6-14.5 42.2-87.3c6.2,3.5 12.7,6.5 19.5,8.8zm105,152.5h-342.7v-448h342.7v87.6c-18.6-12.6-41.1-19.9-65.6-19.9-27.2,0-52.1,9.1-71.9,24.4v-0.5h-138.6v20.8h118c-15.8,20.1-25.3,45.5-25.3,72.9 0,9.7 1.2,19.1 3.4,28.1h-96.1v20.8h103.4c7.2,15.6 17.7,29.2 30.7,40.2l-28.8,60.9h-105.3v20.8h95.5l-14.3,30.2 84.4,29.2 26.3-115c6,0.9 12.2,1.4 18.5,1.4 4.8,0 9.7-0.3 14.5-0.8l26.2,114.3 25-8.6v41.2zm-9.4-59.4l-20.7-91.4c4.3-1.2 17.6-7 20.2-8.5l41.1,85.3-40.6,14.6z">
                </path>
                <path
                    d="m306.15,170.9l-54.2,8.3 39.6,38.5-9.4,54.2 49-24 47.9,25-9.3-54.1 38.5-39.6-54.2-8.3-23.9-49-24,49zm35.4,19.8l22.9,3.1-16.7,16.7 4.3,22.8-20.8-10.4-20.8,11.5 4.2-24-16.8-16.6 22.9-3.1 10.4-20.8 10.4,20.8z">
                </path>
            </g>
        </g>
    </symbol>


    <symbol id="question_mark" viewBox="-1.7 0 20.4 20.4">
        <g id="SVGRepo_bgCarrier" stroke-width="0"></g>
        <g id="SVGRepo_tracerCarrier" stroke-linecap="round" stroke-linejoin="round"></g>
        <g id="SVGRepo_iconCarrier">
            <path
                d="M16.476 10.283A7.917 7.917 0 1 1 8.56 2.366a7.916 7.916 0 0 1 7.916 7.917zm-5.034-2.687a2.845 2.845 0 0 0-.223-1.13A2.877 2.877 0 0 0 9.692 4.92a2.747 2.747 0 0 0-1.116-.227 2.79 2.79 0 0 0-1.129.227 2.903 2.903 0 0 0-1.543 1.546 2.803 2.803 0 0 0-.227 1.128v.02a.792.792 0 0 0 1.583 0v-.02a1.23 1.23 0 0 1 .099-.503 1.32 1.32 0 0 1 .715-.717 1.223 1.223 0 0 1 .502-.098 1.18 1.18 0 0 1 .485.096 1.294 1.294 0 0 1 .418.283 1.307 1.307 0 0 1 .281.427 1.273 1.273 0 0 1 .099.513 1.706 1.706 0 0 1-.05.45 1.546 1.546 0 0 1-.132.335 2.11 2.11 0 0 1-.219.318c-.126.15-.25.293-.365.424-.135.142-.26.28-.374.412a4.113 4.113 0 0 0-.451.639 3.525 3.525 0 0 0-.342.842 3.904 3.904 0 0 0-.12.995v.035a.792.792 0 0 0 1.583 0v-.035a2.324 2.324 0 0 1 .068-.59 1.944 1.944 0 0 1 .187-.463 2.49 2.49 0 0 1 .276-.39c.098-.115.209-.237.329-.363l.018-.02c.129-.144.264-.301.403-.466a3.712 3.712 0 0 0 .384-.556 3.083 3.083 0 0 0 .28-.692 3.275 3.275 0 0 0 .108-.875zM9.58 14.895a.982.982 0 0 0-.294-.707 1.059 1.059 0 0 0-.32-.212l-.004-.001a.968.968 0 0 0-.382-.079 1.017 1.017 0 0 0-.397.08 1.053 1.053 0 0 0-.326.212 1.002 1.002 0 0 0-.215 1.098 1.028 1.028 0 0 0 .216.32 1.027 1.027 0 0 0 .722.295.968.968 0 0 0 .382-.078l.005-.002a1.01 1.01 0 0 0 .534-.534.98.98 0 0 0 .08-.392z">
            </path>
        </g>
    </symbol>
    <symbol id="profile_edit" viewBox="0 0 512 512">
        <path
            d="M471.6 21.7c-21.9-21.9-57.3-21.9-79.2 0L362.3 51.7l97.9 97.9 30.1-30.1c21.9-21.9 21.9-57.3 0-79.2L471.6 21.7zm-299.2 220c-6.1 6.1-10.8 13.6-13.5 21.9l-29.6 88.8c-2.9 8.6-.6 18.1 5.8 24.6s15.9 8.7 24.6 5.8l88.8-29.6c8.2-2.8 15.7-7.4 21.9-13.5L437.7 172.3 339.7 74.3 172.4 241.7zM96 64C43 64 0 107 0 160V416c0 53 43 96 96 96H352c53 0 96-43 96-96V320c0-17.7-14.3-32-32-32s-32 14.3-32 32v96c0 17.7-14.3 32-32 32H96c-17.7 0-32-14.3-32-32V160c0-17.7 14.3-32 32-32h96c17.7 0 32-14.3 32-32s-14.3-32-32-32H96z" />
    </symbol>
    <symbol id="setting" viewBox="0 0 512 512">
        <path
            d="M481.9 166.6c3.2 8.7 .5 18.4-6.4 24.6l-30.9 28.1c-7.7 7.1-11.4 17.5-10.9 27.9c.1 2.9 .2 5.8 .2 8.8s-.1 5.9-.2 8.8c-.5 10.5 3.1 20.9 10.9 27.9l30.9 28.1c6.9 6.2 9.6 15.9 6.4 24.6c-4.4 11.9-9.7 23.3-15.8 34.3l-4.7 8.1c-6.6 11-14 21.4-22.1 31.2c-5.9 7.2-15.7 9.6-24.5 6.8l-39.7-12.6c-10-3.2-20.8-1.1-29.7 4.6c-4.9 3.1-9.9 6.1-15.1 8.7c-9.3 4.8-16.5 13.2-18.8 23.4l-8.9 40.7c-2 9.1-9 16.3-18.2 17.8c-13.8 2.3-28 3.5-42.5 3.5s-28.7-1.2-42.5-3.5c-9.2-1.5-16.2-8.7-18.2-17.8l-8.9-40.7c-2.2-10.2-9.5-18.6-18.8-23.4c-5.2-2.7-10.2-5.6-15.1-8.7c-8.8-5.7-19.7-7.8-29.7-4.6L69.1 425.9c-8.8 2.8-18.6 .3-24.5-6.8c-8.1-9.8-15.5-20.2-22.1-31.2l-4.7-8.1c-6.1-11-11.4-22.4-15.8-34.3c-3.2-8.7-.5-18.4 6.4-24.6l30.9-28.1c7.7-7.1 11.4-17.5 10.9-27.9c-.1-2.9-.2-5.8-.2-8.8s.1-5.9 .2-8.8c.5-10.5-3.1-20.9-10.9-27.9L8.4 191.2c-6.9-6.2-9.6-15.9-6.4-24.6c4.4-11.9 9.7-23.3 15.8-34.3l4.7-8.1c6.6-11 14-21.4 22.1-31.2c5.9-7.2 15.7-9.6 24.5-6.8l39.7 12.6c10 3.2 20.8 1.1 29.7-4.6c4.9-3.1 9.9-6.1 15.1-8.7c9.3-4.8 16.5-13.2 18.8-23.4l8.9-40.7c2-9.1 9-16.3 18.2-17.8C213.3 1.2 227.5 0 242 0s28.7 1.2 42.5 3.5c9.2 1.5 16.2 8.7 18.2 17.8l8.9 40.7c2.2 10.2 9.4 18.6 18.8 23.4c5.2 2.7 10.2 5.6 15.1 8.7c8.8 5.7 19.7 7.7 29.7 4.6l39.7-12.6c8.8-2.8 18.6-.3 24.5 6.8c8.1 9.8 15.5 20.2 22.1 31.2l4.7 8.1c6.1 11 11.4 22.4 15.8 34.3zM242 336a80 80 0 1 0 0-160 80 80 0 1 0 0 160z" />
    </symbol>
    <symbol id="horn" viewBox="0 0 512 512">
        <path
            d="M480 32c0-12.9-7.8-24.6-19.8-29.6s-25.7-2.2-34.9 6.9L381.7 53c-48 48-113.1 75-181 75H192 160 64c-35.3 0-64 28.7-64 64v96c0 35.3 28.7 64 64 64l0 128c0 17.7 14.3 32 32 32h64c17.7 0 32-14.3 32-32V352l8.7 0c67.9 0 133 27 181 75l43.6 43.6c9.2 9.2 22.9 11.9 34.9 6.9s19.8-16.6 19.8-29.6V300.4c18.6-8.8 32-32.5 32-60.4s-13.4-51.6-32-60.4V32zm-64 76.7V240 371.3C357.2 317.8 280.5 288 200.7 288H192V192h8.7c79.8 0 156.5-29.8 215.3-83.3z" />
    </symbol>
    <symbol id="logout" viewBox="0 0 512 512">
        <path
            d="M377.9 105.9L500.7 228.7c7.2 7.2 11.3 17.1 11.3 27.3s-4.1 20.1-11.3 27.3L377.9 406.1c-6.4 6.4-15 9.9-24 9.9c-18.7 0-33.9-15.2-33.9-33.9l0-62.1-128 0c-17.7 0-32-14.3-32-32l0-64c0-17.7 14.3-32 32-32l128 0 0-62.1c0-18.7 15.2-33.9 33.9-33.9c9 0 17.6 3.6 24 9.9zM160 96L96 96c-17.7 0-32 14.3-32 32l0 256c0 17.7 14.3 32 32 32l64 0c17.7 0 32 14.3 32 32s-14.3 32-32 32l-64 0c-53 0-96-43-96-96L0 128C0 75 43 32 96 32l64 0c17.7 0 32 14.3 32 32s-14.3 32-32 32z" />
    </symbol>
    <symbol id="dashboard" viewBox="0 0 512 512">
        <path
            d="M0 256a256 256 0 1 1 512 0A256 256 0 1 1 0 256zm320 96c0-26.9-16.5-49.9-40-59.3V88c0-13.3-10.7-24-24-24s-24 10.7-24 24V292.7c-23.5 9.5-40 32.5-40 59.3c0 35.3 28.7 64 64 64s64-28.7 64-64zM144 176a32 32 0 1 0 0-64 32 32 0 1 0 0 64zm-16 80a32 32 0 1 0 -64 0 32 32 0 1 0 64 0zm288 32a32 32 0 1 0 0-64 32 32 0 1 0 0 64zM400 144a32 32 0 1 0 -64 0 32 32 0 1 0 64 0z" />
    </symbol>
    <symbol id="list" viewBox="0 0 512 512">
        <path
            d="M144 0a80 80 0 1 1 0 160A80 80 0 1 1 144 0zM512 0a80 80 0 1 1 0 160A80 80 0 1 1 512 0zM0 298.7C0 239.8 47.8 192 106.7 192h42.7c15.9 0 31 3.5 44.6 9.7c-1.3 7.2-1.9 14.7-1.9 22.3c0 38.2 16.8 72.5 43.3 96c-.2 0-.4 0-.7 0H21.3C9.6 320 0 310.4 0 298.7zM405.3 320c-.2 0-.4 0-.7 0c26.6-23.5 43.3-57.8 43.3-96c0-7.6-.7-15-1.9-22.3c13.6-6.3 28.7-9.7 44.6-9.7h42.7C592.2 192 640 239.8 640 298.7c0 11.8-9.6 21.3-21.3 21.3H405.3zM224 224a96 96 0 1 1 192 0 96 96 0 1 1 -192 0zM128 485.3C128 411.7 187.7 352 261.3 352H378.7C452.3 352 512 411.7 512 485.3c0 14.7-11.9 26.7-26.7 26.7H154.7c-14.7 0-26.7-11.9-26.7-26.7z" />
    </symbol>

    <symbol id="plus" viewBox="0 0 512 512">
        <path
            d="M240 80c0-17.7-14.3-32-32-32s-32 14.3-32 32V224H32c-17.7 0-32 14.3-32 32s14.3 32 32 32H176V432c0 17.7 14.3 32 32 32s32-14.3 32-32V288H384c17.7 0 32-14.3 32-32s-14.3-32-32-32H240V80z" />
    </symbol>

    <symbol id="notice" viewBox="0 0 512 512">
        <path
            d="M240 80c0-17.7-14.3-32-32-32s-32 14.3-32 32V224H32c-17.7 0-32 14.3-32 32s14.3 32 32 32H176V432c0 17.7 14.3 32 32 32s32-14.3 32-32V288H384c17.7 0 32-14.3 32-32s-14.3-32-32-32H240V80z" />
    </symbol>
    <symbol id="profile" viewBox="0 0 512 512">
        <path
            d="M240 80c0-17.7-14.3-32-32-32s-32 14.3-32 32V224H32c-17.7 0-32 14.3-32 32s14.3 32 32 32H176V432c0 17.7 14.3 32 32 32s32-14.3 32-32V288H384c17.7 0 32-14.3 32-32s-14.3-32-32-32H240V80z" />
    </symbol>
    <symbol id="rupee" viewBox="0 0 203.86 300">
        <g id="Group_21638" data-name="Group 21638">
            <path id="Path_26915" data-name="Path 26915" class="cls-1"
                d="M135.76,28.35H185L203.86,0h-185L0,28.35H32.1c32.5,0,62.5,2.5,74.51,29.7H19L.15,86.39h110c0,20.4-16.9,51.65-72.8,51.65h-27v26.5L118.74,300H167L54.85,160c46.15-2.5,89.46-28.31,95.7-73.56H185L203.86,58.1h-53.8a62.85,62.85,0,0,0-14.3-29.75Z" />
        </g>
    </symbol>
    <symbol id="delete" viewBox="0 0 448 512">
        <path
            d="M135.2 17.7L128 32H32C14.3 32 0 46.3 0 64S14.3 96 32 96H416c17.7 0 32-14.3 32-32s-14.3-32-32-32H320l-7.2-14.3C307.4 6.8 296.3 0 284.2 0H163.8c-12.1 0-23.2 6.8-28.6 17.7zM416 128H32L53.2 467c1.6 25.3 22.6 45 47.9 45H346.9c25.3 0 46.3-19.7 47.9-45L416 128z" />
    </symbol>
    <symbol id="edit" viewBox="0 0 512 512">
        <path
            d="M471.6 21.7c-21.9-21.9-57.3-21.9-79.2 0L362.3 51.7l97.9 97.9 30.1-30.1c21.9-21.9 21.9-57.3 0-79.2L471.6 21.7zm-299.2 220c-6.1 6.1-10.8 13.6-13.5 21.9l-29.6 88.8c-2.9 8.6-.6 18.1 5.8 24.6s15.9 8.7 24.6 5.8l88.8-29.6c8.2-2.8 15.7-7.4 21.9-13.5L437.7 172.3 339.7 74.3 172.4 241.7zM96 64C43 64 0 107 0 160V416c0 53 43 96 96 96H352c53 0 96-43 96-96V320c0-17.7-14.3-32-32-32s-32 14.3-32 32v96c0 17.7-14.3 32-32 32H96c-17.7 0-32-14.3-32-32V160c0-17.7 14.3-32 32-32h96c17.7 0 32-14.3 32-32s-14.3-32-32-32H96z" />
    </symbol>


    <symbol id="loading" viewBox="0 0 1024 1024">
        <g stroke-width="0"></g>
        <g id="SVGRepo_tracerCarrier" stroke-linecap="round" stroke-linejoin="round"></g>
        <g id="SVGRepo_iconCarrier">
            <path
                d="M512 64a32 32 0 0 1 32 32v192a32 32 0 0 1-64 0V96a32 32 0 0 1 32-32zm0 640a32 32 0 0 1 32 32v192a32 32 0 1 1-64 0V736a32 32 0 0 1 32-32zm448-192a32 32 0 0 1-32 32H736a32 32 0 1 1 0-64h192a32 32 0 0 1 32 32zm-640 0a32 32 0 0 1-32 32H96a32 32 0 0 1 0-64h192a32 32 0 0 1 32 32zM195.2 195.2a32 32 0 0 1 45.248 0L376.32 331.008a32 32 0 0 1-45.248 45.248L195.2 240.448a32 32 0 0 1 0-45.248zm452.544 452.544a32 32 0 0 1 45.248 0L828.8 783.552a32 32 0 0 1-45.248 45.248L647.744 692.992a32 32 0 0 1 0-45.248zM828.8 195.264a32 32 0 0 1 0 45.184L692.992 376.32a32 32 0 0 1-45.248-45.248l135.808-135.808a32 32 0 0 1 45.248 0zm-452.544 452.48a32 32 0 0 1 0 45.248L240.448 828.8a32 32 0 0 1-45.248-45.248l135.808-135.808a32 32 0 0 1 45.248 0z">
            </path>
        </g>
    </symbol>

    <symbol id="Massages" viewBox="0 0 30 30">
        <path
            d="M 15 3 C 7.832 3 2 7.9188438 2 13.964844 C 2 17.461844 3.9979687 20.749828 7.2929688 22.798828 C 7.1919688 22.995828 7.0672656 23.188812 6.9472656 23.382812 C 6.3672656 24.318812 5.2265625 25.587891 5.2265625 25.587891 C 4.6885625 26.364891 5.3188437 27.205187 6.3398438 27.117188 C 7.4008437 27.026187 8.2667344 26.798594 9.1777344 26.433594 C 10.408734 25.939594 11.635781 25.441375 12.550781 24.734375 C 12.607647 24.74354 12.665638 24.74739 12.722656 24.755859 C 14.240757 25.979238 16.26846 26.734375 18.5 26.734375 C 19.027 26.734375 19.554172 26.691469 20.076172 26.605469 C 20.555172 26.883469 21.168078 27.23175 21.705078 27.46875 C 22.475078 27.80775 23.162859 28.138219 24.380859 28.324219 C 25.308859 28.466219 26.043922 27.63875 25.544922 26.84375 C 24.970922 26.29975 24.531859 25.625016 24.255859 24.791016 C 25.996859 23.412016 27 21.465188 27 19.367188 C 27 19.01627 26.96127 18.673913 26.90625 18.335938 C 27.604473 16.996387 28 15.520442 28 13.964844 C 28 7.9188437 22.168 3 15 3 z M 18.5 14 C 22.084 14 25 16.408188 25 19.367188 C 25 21.183187 23.892109 22.863328 22.037109 23.861328 C 21.813109 23.982328 21.716547 24.247516 21.810547 24.478516 C 21.950547 24.823516 22.110109 25.139922 22.287109 25.419922 C 21.687109 25.215922 21.117156 24.931469 20.660156 24.605469 C 20.577156 24.546469 20.481859 24.515625 20.380859 24.515625 C 20.343859 24.515625 20.305531 24.518344 20.269531 24.527344 C 19.687531 24.663344 19.092 24.732422 18.5 24.732422 C 14.916 24.732422 12 22.324234 12 19.365234 C 12 16.407234 14.916 14 18.5 14 z M 15.412109 18.3125 A 1.087 1.087 0 1 0 15.412109 20.486328 A 1.087 1.087 0 1 0 15.412109 18.3125 z M 18.537109 18.3125 A 1.087 1.087 0 1 0 18.537109 20.486328 A 1.087 1.087 0 1 0 18.537109 18.3125 z M 21.587891 18.3125 A 1.087 1.087 0 1 0 21.587891 20.486328 A 1.087 1.087 0 1 0 21.587891 18.3125 z">
        </path>
    </symbol>

    <symbol id="page" viewBox="0 0 490 490">
        <path
            d="M489.976,110c-0.001-2.602-0.993-5.158-2.905-7.071l-100-100c-1.913-1.912-4.47-2.903-7.071-2.904V0H110
				c-5.523,0-10,4.477-10,10v50H10C4.477,60,0,64.478,0,70v355c0,5.522,4.477,10,10,10h90v45c0,5.522,4.477,10,10,10h370
				c5.523,0,10-4.478,10-10V110H489.976z M390,34.143L455.858,100H390V34.143z M20,415V80h172.5v67.5c0,5.523,4.477,10,10,10H270
				V415H20z M212.5,137.5V94.143l43.357,43.357H212.5z M470,470H120v-35h160c5.523,0,10-4.478,10-10V147.5
				c0-2.652-1.054-5.195-2.929-7.071l-77.5-77.5C207.696,61.054,205.152,60,202.5,60H120V20h250v90c0,5.522,4.477,10,10,10h90V470z" />
    </symbol>
    <symbol id="power" viewBox="0 0 490 490">
        <path
            d="M24.718 49c-11.54 0-20.929-9.389-20.929-20.93 0-7.386 3.776-14.083 10.102-17.913a2.867 2.867 0 1 1 2.971 4.905c-4.595 2.782-7.338 7.646-7.338 13.008 0 8.379 6.816 15.195 15.195 15.195 8.379 0 15.194-6.816 15.194-15.195 0-5.45-2.944-10.515-7.687-13.215a2.867 2.867 0 1 1 2.837-4.982 20.985 20.985 0 0 1 10.585 18.198C45.647 39.611 36.26 49 24.718 49zM24.5 27.784c-1.583 0-3.5-1.284-3.5-2.867V4.274c0-1.583 1.917-2.867 3.5-2.867S28 2.691 28 4.274v20.643c0 1.583-1.917 2.867-3.5 2.867z">
        </path>
    </symbol>

</svg>